<!DOCTYPE svg PUBLIC "-//W3C//DTD SVG 1.1//EN" "http://www.w3.org/Graphics/SVG/1.1/DTD/svg11.dtd">
<!-- Uploaded to: SVG Repo, www.svgrepo.com, Transformed by: SVG Repo Mixer Tools -->
<svg fill="#ff932e" version="1.1" id="Layer_1" xmlns="http://www.w3.org/2000/svg" xmlns:xlink="http://www.w3.org/1999/xlink" viewBox="0 0 512 512" xml:space="preserve" width="800px" height="800px" stroke="#ff932e">
<g id="SVGRepo_bgCarrier" stroke-width="0"/>
<g id="SVGRepo_tracerCarrier" stroke-linecap="round" stroke-linejoin="round"/>
<g id="SVGRepo_iconCarrier"> <g> <g> <rect y="483.614" width="512" height="15.77"/> </g> </g> <g> <g> <path d="M487.359,12.616h-80.492v174.522h15.77v-78.85h64.723c4.534,0,8.087,3.463,8.087,7.885s-3.552,7.885-8.087,7.885h-56.313 v15.77h56.313c13.151,0,23.852-10.605,23.857-23.643l0.119-80.064C511.336,23.16,500.58,12.616,487.359,12.616z M495.48,93.928 c-2.535-0.913-5.271-1.411-8.121-1.411h-64.723v-31.54V28.386h64.723c4.602,0,8.207,3.397,8.207,7.722L495.48,93.928z"/> </g> </g> <g> <g> <polygon points="399.511,43.846 284.043,43.846 303.169,91.662 284.043,139.477 399.508,139.477 399.508,123.707 307.337,123.707 320.155,91.662 307.337,59.616 399.511,59.616 "/> </g> </g> <g> <g> <rect x="15.77" y="44.156" width="152.444" height="15.77"/> </g> </g> <g> <g> <rect x="15.77" y="76.747" width="48.361" height="15.77"/> </g> </g> <g> <g> <rect x="79.901" y="76.747" width="39.951" height="15.77"/> </g> </g> <g> <g> <rect x="15.77" y="107.236" width="72.542" height="15.77"/> </g> </g> <g> <g> <rect x="15.77" y="139.828" width="24.181" height="15.77"/> </g> </g> <g> <g> <path d="M207.943,275.447v199.555h15.77v-63.93h64.091V475h15.77V275.447H207.943z M287.805,395.302h-64.091v-16.821h64.091 V395.302z M287.805,362.711h-64.091v-71.494h64.091V362.711z"/> </g> </g> <g> <g> <path d="M48.218,363.294V475h15.77v-16.618h64.091V475h15.771V363.294H48.218z M128.08,442.612H63.988v-15.77h64.091V442.612z M128.08,411.072H63.988v-32.008h64.091V411.072z"/> </g> </g> <g> <g> <path d="M367.668,195.584V475h15.77V275.45h64.093V475h15.77V195.584H367.668z M447.53,259.68h-64.093v-15.77h64.093V259.68z M447.53,228.14h-64.093v-16.786h64.093V228.14z"/> </g> </g> </g>
</svg>